<svg width="11" height="16" viewBox="0 0 11 16" fill="none" xmlns="http://www.w3.org/2000/svg">
<path d="M9.29778 15.8755C9.40443 15.9644 9.54666 16 9.68889 16C9.79554 16 9.88445 15.9823 9.97337 15.9289C10.1867 15.8223 10.3289 15.609 10.3289 15.3779V1.17337C10.311 0.533367 9.75994 0 9.10219 0H1.20883C0.551081 0 0 0.533367 0 1.17337V15.3779C0 15.609 0.142238 15.8223 0.355525 15.9289C0.568811 16.0356 0.835558 16.0179 1.03111 15.8756C1.06671 15.8579 1.08444 15.8223 1.12003 15.7867L5.1556 10.56L9.20895 15.7867C9.22668 15.8222 9.26227 15.84 9.29786 15.8755H9.29778ZM5.15554 9.38658C5.01331 9.38658 4.88893 9.45764 4.80002 9.56441L0.888895 14.6133V1.17327C0.888895 1.0133 1.03113 0.8888 1.20883 0.8888H9.10219C9.28002 0.8888 9.42213 1.0133 9.42213 1.17327V14.6133L5.51101 9.56441C5.42209 9.45776 5.29771 9.38658 5.15548 9.38658H5.15554Z" fill="white"/>
</svg>
