<svg width="26" height="26" viewBox="0 0 26 26" fill="none" xmlns="http://www.w3.org/2000/svg">
<g clip-path="url(#clip0_980_5676)">
<path d="M24.565 26.0001C25.3574 26.0001 26 25.3576 26 24.5651V1.43498C26 0.642383 25.3574 0 24.565 0H1.43498C0.642281 0 0 0.642383 0 1.43498V24.5651C0 25.3576 0.642281 26.0001 1.43498 26.0001H24.565Z" fill="#395185"/>
<path d="M17.9404 25.999V15.9304H21.3201L21.826 12.0065H17.9404V9.50116C17.9404 8.36508 18.2559 7.59087 19.8851 7.59087L21.963 7.58995V4.08046C21.6034 4.03262 20.37 3.92578 18.9352 3.92578C15.9393 3.92578 13.8883 5.75441 13.8883 9.11268V12.0065H10.5V15.9304H13.8883V25.999H17.9404Z" fill="white"/>
</g>
<defs>
<clipPath id="clip0_980_5676">
<rect width="26" height="26" fill="white"/>
</clipPath>
</defs>
</svg>
