<svg width="40" height="40" viewBox="0 0 40 40" fill="none" xmlns="http://www.w3.org/2000/svg">
<rect x="0.75" y="0.75" width="38.5" height="38.5" rx="4.25" stroke="white" stroke-width="1.5"/>
<g clip-path="url(#clip0_1842_4346)">
<path d="M19.9983 9C19.6906 9 19.3939 9.11317 19.1631 9.33032L19.1524 9.33838L9.33618 19.2373C9.17072 19.4042 9.06198 19.6131 9.01928 19.8416C8.97843 20.06 9.00124 20.3011 9.09985 20.521C9.19691 20.7371 9.35343 20.91 9.54567 21.0312C9.73851 21.1529 9.96062 21.2161 10.1849 21.2166H12.0004V29.8345C12.0004 30.1453 12.1292 30.4514 12.3576 30.6697C12.5862 30.888 12.8813 31 13.1874 31H17.4416C17.7476 31 18.0446 30.8838 18.2688 30.6697H18.2715C18.4955 30.4556 18.6314 30.1544 18.6314 29.8345V25.688H21.5185V29.8345C21.5185 30.1543 21.6543 30.4555 21.8784 30.6697C22.1024 30.8839 22.3994 31 22.7055 31H26.9489C27.2549 31 27.5548 30.8835 27.7787 30.6697C28.0023 30.4557 28.1386 30.1546 28.1386 29.8345V21.2166H29.8145H29.8172C30.0416 21.2161 30.264 21.1526 30.4564 21.0312C30.6482 20.9102 30.805 20.7378 30.9023 20.521C31.001 20.3009 31.0208 20.0597 30.9801 19.8416C30.9375 19.612 30.8285 19.404 30.6632 19.2373L20.8444 9.33838L20.8363 9.33032C20.6054 9.11308 20.3061 9 19.9983 9ZM20.001 10.4368L29.3284 19.8416H26.7636V29.625H22.8935V24.313H17.2562V29.625H13.3754V19.8416H10.6736L20.001 10.4368Z" fill="white"/>
</g>
<defs>
<clipPath id="clip0_1842_4346">
<rect width="22" height="22" fill="white" transform="translate(9 9)"/>
</clipPath>
</defs>
</svg>
