<svg width="22" height="22" viewBox="0 0 22 22" fill="none" xmlns="http://www.w3.org/2000/svg">
<path d="M10.9983 0C10.6906 0 10.3939 0.113167 10.1631 0.330322L10.1524 0.338381L0.336184 10.2373C0.170719 10.4042 0.0619787 10.6131 0.019275 10.8416C-0.0215738 11.06 0.00123794 11.3011 0.099847 11.521C0.196908 11.7371 0.353431 11.91 0.545671 12.0312C0.738511 12.1529 0.960624 12.2161 1.18486 12.2166H3.00039V20.8345C3.00039 21.1453 3.12923 21.4514 3.35758 21.6697C3.58617 21.888 3.88129 22 4.18744 22H8.44157C8.74761 22 9.0446 21.8838 9.26876 21.6697H9.27151C9.49547 21.4556 9.63139 21.1544 9.63139 20.8345V16.688H12.5185V20.8345C12.5185 21.1543 12.6543 21.4555 12.8784 21.6697C13.1024 21.8839 13.3994 22 13.7055 22H17.9489C18.2549 22 18.5548 21.8835 18.7787 21.6697C19.0023 21.4557 19.1386 21.1546 19.1386 20.8345V12.2166H20.8145H20.8172C21.0416 12.2161 21.264 12.1526 21.4564 12.0312C21.6482 11.9102 21.805 11.7378 21.9023 11.521C22.001 11.3009 22.0208 11.0597 21.9801 10.8416C21.9375 10.612 21.8285 10.404 21.6632 10.2373L11.8444 0.338379L11.8363 0.330322C11.6054 0.11308 11.3061 0 10.9983 0ZM11.001 1.43677L20.3284 10.8416H17.7636V20.625H13.8935V15.313H8.25624V20.625H4.37542V10.8416H1.67363L11.001 1.43677Z" fill="white"/>
</svg>
