<svg width="26" height="26" viewBox="0 0 26 26" fill="none" xmlns="http://www.w3.org/2000/svg">
<rect x="2" y="2" width="22" height="22" rx="2" fill="white"/>
<path d="M8.66736 13C8.66736 10.6069 10.6069 8.66632 13 8.66632C15.3931 8.66632 17.3337 10.6069 17.3337 13C17.3337 15.3931 15.3931 17.3337 13 17.3337C10.6069 17.3337 8.66736 15.3931 8.66736 13ZM6.32466 13C6.32466 16.6868 9.3132 19.6753 13 19.6753C16.6868 19.6753 19.6753 16.6868 19.6753 13C19.6753 9.3132 16.6868 6.32466 13 6.32466C9.3132 6.32466 6.32466 9.3132 6.32466 13ZM18.3796 6.05998C18.3795 6.36851 18.4709 6.67016 18.6422 6.92677C18.8135 7.18338 19.057 7.38343 19.342 7.50161C19.627 7.6198 19.9407 7.65082 20.2433 7.59075C20.546 7.53067 20.824 7.38221 21.0423 7.16413C21.2605 6.94604 21.4092 6.66814 21.4695 6.36555C21.5298 6.06297 21.4991 5.74929 21.3811 5.46419C21.2631 5.17909 21.0633 4.93537 20.8068 4.76385C20.5503 4.59234 20.2488 4.50072 19.9402 4.5006H19.9396C19.526 4.50079 19.1294 4.66513 18.837 4.95751C18.5445 5.24989 18.38 5.64641 18.3796 6.05998V6.05998ZM7.748 23.5817C6.48055 23.524 5.79166 23.3128 5.33385 23.1345C4.7269 22.8982 4.29385 22.6168 3.83854 22.1621C3.38322 21.7074 3.10138 21.2748 2.86614 20.6678C2.68767 20.2102 2.47655 19.5211 2.41894 18.2537C2.35591 16.8834 2.34333 16.4717 2.34333 13.0001C2.34333 9.52848 2.35695 9.11799 2.41894 7.74654C2.47666 6.4791 2.68934 5.79134 2.86614 5.33239C3.10242 4.72545 3.38385 4.29239 3.83854 3.83708C4.29322 3.38177 4.72586 3.09993 5.33385 2.86468C5.79145 2.68622 6.48055 2.4751 7.748 2.41748C9.1183 2.35446 9.52994 2.34187 13 2.34187C16.4701 2.34187 16.8821 2.3555 18.2536 2.41748C19.521 2.4752 20.2088 2.68788 20.6677 2.86468C21.2747 3.09993 21.7077 3.38239 22.163 3.83708C22.6183 4.29177 22.8991 4.72545 23.1354 5.33239C23.3139 5.78999 23.525 6.4791 23.5826 7.74654C23.6456 9.11799 23.6582 9.52848 23.6582 13.0001C23.6582 16.4717 23.6456 16.8822 23.5826 18.2537C23.5249 19.5211 23.3127 20.21 23.1354 20.6678C22.8991 21.2748 22.6177 21.7078 22.163 22.1621C21.7083 22.6164 21.2747 22.8982 20.6677 23.1345C20.2101 23.313 19.521 23.5241 18.2536 23.5817C16.8833 23.6447 16.4716 23.6573 13 23.6573C9.52838 23.6573 9.11789 23.6447 7.748 23.5817V23.5817ZM7.64036 0.078728C6.25643 0.141752 5.31076 0.361192 4.4849 0.682552C3.6296 1.01442 2.90555 1.45964 2.18202 2.18202C1.4585 2.90441 1.01442 3.6296 0.682552 4.4849C0.361192 5.31128 0.141752 6.25643 0.078728 7.64036C0.014664 9.02647 0 9.46962 0 13C0 16.5304 0.014664 16.9735 0.078728 18.3596C0.141752 19.7437 0.361192 20.6887 0.682552 21.5151C1.01442 22.3699 1.4586 23.0959 2.18202 23.818C2.90545 24.54 3.6296 24.9846 4.4849 25.3174C5.31232 25.6388 6.25643 25.8582 7.64036 25.9213C9.0272 25.9843 9.46962 26 13 26C16.5304 26 16.9735 25.9853 18.3596 25.9213C19.7437 25.8582 20.6887 25.6388 21.5151 25.3174C22.3699 24.9846 23.0944 24.5404 23.818 23.818C24.5415 23.0956 24.9846 22.3699 25.3174 21.5151C25.6388 20.6887 25.8593 19.7436 25.9213 18.3596C25.9843 16.9725 25.999 16.5304 25.999 13C25.999 9.46962 25.9843 9.02647 25.9213 7.64036C25.8582 6.25633 25.6388 5.31076 25.3174 4.4849C24.9846 3.63012 24.5404 2.90555 23.818 2.18202C23.0956 1.4585 22.3699 1.01442 21.5161 0.682552C20.6887 0.361192 19.7436 0.140712 18.3607 0.078728C16.9746 0.015704 16.5314 0 13.001 0C9.47066 0 9.0272 0.014664 7.64036 0.078728Z" fill="url(#paint0_radial_992_5772)"/>
<defs>
<radialGradient id="paint0_radial_992_5772" cx="0" cy="0" r="1" gradientUnits="userSpaceOnUse" gradientTransform="translate(3.45426 26.1228) scale(33.9408)">
<stop offset="0.09" stop-color="#FA8F21"/>
<stop offset="0.78" stop-color="#D82D7E"/>
</radialGradient>
</defs>
</svg>
