<svg width="26" height="27" viewBox="0 0 26 27" fill="none" xmlns="http://www.w3.org/2000/svg">
<path d="M8.66736 13.5693C8.66736 11.1762 10.6069 9.23566 13 9.23566C15.3931 9.23566 17.3337 11.1762 17.3337 13.5693C17.3337 15.9625 15.3931 17.903 13 17.903C10.6069 17.903 8.66736 15.9625 8.66736 13.5693ZM6.32466 13.5693C6.32466 17.2561 9.3132 20.2447 13 20.2447C16.6868 20.2447 19.6753 17.2561 19.6753 13.5693C19.6753 9.88254 16.6868 6.89399 13 6.89399C9.3132 6.89399 6.32466 9.88254 6.32466 13.5693ZM18.3796 6.62931C18.3795 6.93785 18.4709 7.2395 18.6422 7.49611C18.8135 7.75272 19.057 7.95276 19.342 8.07095C19.627 8.18914 19.9407 8.22015 20.2433 8.16008C20.546 8.10001 20.824 7.95155 21.0423 7.73346C21.2605 7.51538 21.4092 7.23747 21.4695 6.93489C21.5298 6.6323 21.4991 6.31863 21.3811 6.03353C21.2631 5.74843 21.0633 5.50471 20.8068 5.33319C20.5503 5.16167 20.2488 5.07006 19.9402 5.06994H19.9396C19.526 5.07013 19.1294 5.23446 18.837 5.52684C18.5445 5.81922 18.38 6.21574 18.3796 6.62931ZM7.748 24.151C6.48055 24.0933 5.79166 23.8822 5.33385 23.7038C4.7269 23.4675 4.29385 23.1861 3.83854 22.7314C3.38322 22.2767 3.10138 21.8441 2.86614 21.2372C2.68767 20.7796 2.47655 20.0904 2.41894 18.823C2.35591 17.4527 2.34333 17.0411 2.34333 13.5694C2.34333 10.0978 2.35695 9.68733 2.41894 8.31588C2.47666 7.04843 2.68934 6.36068 2.86614 5.90173C3.10242 5.29478 3.38385 4.86173 3.83854 4.40642C4.29322 3.9511 4.72586 3.66926 5.33385 3.43402C5.79145 3.25555 6.48055 3.04443 7.748 2.98682C9.1183 2.92379 9.52993 2.91121 13 2.91121C16.4701 2.91121 16.8821 2.92483 18.2536 2.98682C19.521 3.04454 20.2088 3.25722 20.6677 3.43402C21.2747 3.66926 21.7077 3.95173 22.163 4.40642C22.6183 4.8611 22.8991 5.29478 23.1354 5.90173C23.3139 6.35933 23.525 7.04843 23.5826 8.31588C23.6456 9.68733 23.6582 10.0978 23.6582 13.5694C23.6582 17.0411 23.6456 17.4516 23.5826 18.823C23.5249 20.0904 23.3127 20.7793 23.1354 21.2372C22.8991 21.8441 22.6177 22.2772 22.163 22.7314C21.7083 23.1857 21.2747 23.4675 20.6677 23.7038C20.2101 23.8823 19.521 24.0934 18.2536 24.151C16.8833 24.214 16.4716 24.2266 13 24.2266C9.52838 24.2266 9.11789 24.214 7.748 24.151ZM7.64036 0.648064C6.25643 0.711088 5.31076 0.930528 4.4849 1.25189C3.6296 1.58375 2.90555 2.02898 2.18202 2.75136C1.4585 3.47374 1.01442 4.19894 0.682552 5.05423C0.361192 5.88062 0.141752 6.82577 0.078728 8.2097C0.014664 9.59581 0 10.039 0 13.5693C0 17.0997 0.014664 17.5429 0.078728 18.929C0.141752 20.313 0.361192 21.2581 0.682552 22.0844C1.01442 22.9392 1.4586 23.6652 2.18202 24.3873C2.90545 25.1094 3.6296 25.554 4.4849 25.8868C5.31232 26.2081 6.25643 26.4276 7.64036 26.4906C9.0272 26.5536 9.46961 26.5693 13 26.5693C16.5304 26.5693 16.9735 26.5547 18.3596 26.4906C19.7437 26.4276 20.6887 26.2081 21.5151 25.8868C22.3699 25.554 23.0944 25.1097 23.818 24.3873C24.5415 23.6649 24.9846 22.9392 25.3174 22.0844C25.6388 21.2581 25.8593 20.3129 25.9213 18.929C25.9843 17.5418 25.999 17.0997 25.999 13.5693C25.999 10.039 25.9843 9.59581 25.9213 8.2097C25.8582 6.82566 25.6388 5.8801 25.3174 5.05423C24.9846 4.19946 24.5404 3.47489 23.818 2.75136C23.0956 2.02783 22.3699 1.58375 21.5161 1.25189C20.6887 0.930528 19.7436 0.710048 18.3607 0.648064C16.9746 0.58504 16.5314 0.569336 13.001 0.569336C9.47066 0.569336 9.0272 0.584 7.64036 0.648064Z" fill="url(#paint0_radial_1867_3957)"/>
<defs>
<radialGradient id="paint0_radial_1867_3957" cx="0" cy="0" r="1" gradientUnits="userSpaceOnUse" gradientTransform="translate(3.45426 26.6922) scale(33.9408)">
<stop offset="0.09" stop-color="#FA8F21"/>
<stop offset="0.78" stop-color="#D82D7E"/>
</radialGradient>
</defs>
</svg>
