<svg width="26" height="27" viewBox="0 0 26 27" fill="none" xmlns="http://www.w3.org/2000/svg">
<path d="M8.66736 13.9805C8.66736 11.5873 10.6069 9.64679 13 9.64679C15.3931 9.64679 17.3337 11.5873 17.3337 13.9805C17.3337 16.3736 15.3931 18.3141 13 18.3141C10.6069 18.3141 8.66736 16.3736 8.66736 13.9805ZM6.32466 13.9805C6.32466 17.6673 9.3132 20.6558 13 20.6558C16.6868 20.6558 19.6753 17.6673 19.6753 13.9805C19.6753 10.2937 16.6868 7.30512 13 7.30512C9.3132 7.30512 6.32466 10.2937 6.32466 13.9805ZM18.3796 7.04044C18.3795 7.34898 18.4709 7.65063 18.6422 7.90724C18.8135 8.16385 19.057 8.3639 19.342 8.48208C19.627 8.60027 19.9407 8.63129 20.2433 8.57122C20.546 8.51114 20.824 8.36268 21.0423 8.1446C21.2605 7.92651 21.4092 7.64861 21.4695 7.34602C21.5298 7.04344 21.4991 6.72976 21.3811 6.44466C21.2631 6.15956 21.0633 5.91584 20.8068 5.74432C20.5503 5.57281 20.2488 5.48119 19.9402 5.48107H19.9396C19.526 5.48126 19.1294 5.64559 18.837 5.93797C18.5445 6.23035 18.38 6.62687 18.3796 7.04044ZM7.748 24.5622C6.48055 24.5044 5.79166 24.2933 5.33385 24.115C4.7269 23.8787 4.29385 23.5972 3.83854 23.1426C3.38322 22.6879 3.10138 22.2552 2.86614 21.6483C2.68767 21.1907 2.47655 20.5016 2.41894 19.2341C2.35591 17.8638 2.34333 17.4522 2.34333 13.9806C2.34333 10.5089 2.35695 10.0985 2.41894 8.72701C2.47666 7.45956 2.68934 6.77181 2.86614 6.31286C3.10242 5.70592 3.38385 5.27286 3.83854 4.81755C4.29322 4.36224 4.72586 4.0804 5.33385 3.84515C5.79145 3.66668 6.48055 3.45556 7.748 3.39795C9.1183 3.33492 9.52993 3.32234 13 3.32234C16.4701 3.32234 16.8821 3.33596 18.2536 3.39795C19.521 3.45567 20.2088 3.66835 20.6677 3.84515C21.2747 4.0804 21.7077 4.36286 22.163 4.81755C22.6183 5.27224 22.8991 5.70592 23.1354 6.31286C23.3139 6.77046 23.525 7.45956 23.5826 8.72701C23.6456 10.0985 23.6582 10.5089 23.6582 13.9806C23.6582 17.4522 23.6456 17.8627 23.5826 19.2341C23.5249 20.5016 23.3127 21.1905 23.1354 21.6483C22.8991 22.2552 22.6177 22.6883 22.163 23.1426C21.7083 23.5968 21.2747 23.8787 20.6677 24.115C20.2101 24.2934 19.521 24.5045 18.2536 24.5622C16.8833 24.6252 16.4716 24.6378 13 24.6378C9.52838 24.6378 9.11789 24.6252 7.748 24.5622ZM7.64036 1.0592C6.25643 1.12222 5.31076 1.34166 4.4849 1.66302C3.6296 1.99488 2.90555 2.44011 2.18202 3.16249C1.4585 3.88488 1.01442 4.61007 0.682552 5.46536C0.361192 6.29175 0.141752 7.2369 0.078728 8.62083C0.014664 10.0069 0 10.4501 0 13.9805C0 17.5109 0.014664 17.954 0.078728 19.3401C0.141752 20.7241 0.361192 21.6692 0.682552 22.4956C1.01442 23.3503 1.4586 24.0764 2.18202 24.7984C2.90545 25.5205 3.6296 25.9651 4.4849 26.2979C5.31232 26.6193 6.25643 26.8387 7.64036 26.9017C9.0272 26.9648 9.46961 26.9805 13 26.9805C16.5304 26.9805 16.9735 26.9658 18.3596 26.9017C19.7437 26.8387 20.6887 26.6193 21.5151 26.2979C22.3699 25.9651 23.0944 25.5208 23.818 24.7984C24.5415 24.0761 24.9846 23.3503 25.3174 22.4956C25.6388 21.6692 25.8593 20.724 25.9213 19.3401C25.9843 17.953 25.999 17.5109 25.999 13.9805C25.999 10.4501 25.9843 10.0069 25.9213 8.62083C25.8582 7.2368 25.6388 6.29123 25.3174 5.46536C24.9846 4.61059 24.5404 3.88602 23.818 3.16249C23.0956 2.43896 22.3699 1.99488 21.5161 1.66302C20.6887 1.34166 19.7436 1.12118 18.3607 1.0592C16.9746 0.996173 16.5314 0.980469 13.001 0.980469C9.47066 0.980469 9.0272 0.995133 7.64036 1.0592Z" fill="url(#paint0_radial_1842_4382)"/>
<defs>
<radialGradient id="paint0_radial_1842_4382" cx="0" cy="0" r="1" gradientUnits="userSpaceOnUse" gradientTransform="translate(3.45426 27.1033) scale(33.9408)">
<stop offset="0.09" stop-color="#FA8F21"/>
<stop offset="0.78" stop-color="#D82D7E"/>
</radialGradient>
</defs>
</svg>
