<svg width="40" height="40" viewBox="0 0 40 40" fill="none" xmlns="http://www.w3.org/2000/svg">
<path fill-rule="evenodd" clip-rule="evenodd" d="M26.4086 9.01099C25.4176 9.01115 24.4538 9.33647 23.665 9.93682L20.9325 12.6703C20.362 13.4202 20.0393 14.3291 20.0091 15.2709C19.9791 16.2126 20.2429 17.1404 20.7642 17.9252L17.9548 20.7392C17.1688 20.2153 16.2385 19.9505 15.2947 19.982C14.3507 20.0134 13.4402 20.3396 12.6907 20.9149L9.95816 23.6484C9.04247 24.8274 8.76211 26.3802 9.2081 27.8052C9.65393 29.23 10.7694 30.3458 12.1937 30.7918C13.618 31.2379 15.1703 30.9575 16.3491 30.0415L19.0927 27.297C19.663 26.5471 19.9857 25.6382 20.0159 24.6964C20.046 23.7547 19.7821 22.8269 19.2609 22.0421L22.0703 19.2317C22.8548 19.7532 23.7823 20.0171 24.7237 19.9871C25.6651 19.957 26.5738 19.6341 27.3234 19.0634L30.0669 16.3189C30.7594 15.4107 31.0855 14.2754 30.9808 13.1379C30.8759 12.0004 30.3479 10.9438 29.5011 10.1774C28.6542 9.41104 27.5507 8.99094 26.4087 9.00015L26.4086 9.01099ZM17.6841 26.1074L15.1454 28.6433C14.6954 28.9633 14.1574 29.1359 13.6053 29.1373C12.8776 29.1373 12.1798 28.8481 11.6652 28.3335C11.1508 27.8187 10.8617 27.1207 10.8617 26.3927C10.8651 25.8408 11.0372 25.303 11.3555 24.8522L13.8942 22.3126C14.2845 22.0335 14.743 21.8658 15.221 21.8271C15.6991 21.7885 16.1787 21.8803 16.6085 22.0931L15.7013 23.0007L15.7014 23.0005C15.5312 23.1731 15.4357 23.4058 15.4357 23.6482C15.4357 23.8907 15.5312 24.1235 15.7014 24.296C15.8734 24.4672 16.1062 24.5632 16.3489 24.5632C16.5916 24.5632 16.8243 24.4672 16.9964 24.296L17.9037 23.3884L17.9035 23.3886C18.0827 23.7543 18.1765 24.1558 18.1779 24.5632C18.1745 25.1161 18.0018 25.6549 17.6841 26.1075L17.6841 26.1074ZM28.6583 15.1293L26.1196 17.6689C25.7294 17.9478 25.2708 18.1157 24.7928 18.1544C24.3147 18.193 23.8352 18.1012 23.4053 17.8884L24.3126 16.9808L24.3124 16.981C24.5437 16.7496 24.6341 16.4123 24.5494 16.0962C24.4647 15.7801 24.2179 15.5332 23.9019 15.4484C23.5859 15.3637 23.2488 15.454 23.0175 15.6855L22.1102 16.593H22.1104C21.8977 16.163 21.8059 15.6833 21.8445 15.205C21.8832 14.7269 22.0508 14.2681 22.3298 13.8778L24.8685 11.3382C25.3187 11.0184 25.8565 10.8447 26.4085 10.8406C27.1362 10.8406 27.8341 11.1297 28.3486 11.6443C28.8631 12.1591 29.1521 12.8572 29.1521 13.5851C29.1487 14.1371 28.9767 14.6748 28.6583 15.1257V15.1293Z" fill="white"/>
<rect x="0.75" y="0.75" width="38.5" height="38.5" rx="4.25" stroke="white" stroke-width="1.5"/>
</svg>
