<svg width="22" height="22" viewBox="0 0 22 22" fill="none" xmlns="http://www.w3.org/2000/svg">
<path fill-rule="evenodd" clip-rule="evenodd" d="M17.4086 0.0109936C16.4176 0.0111516 15.4538 0.336467 14.665 0.936819L11.9325 3.67033C11.362 4.42017 11.0393 5.32914 11.0091 6.27086C10.9791 7.21262 11.2429 8.14044 11.7642 8.92518L8.95482 11.7392C8.16879 11.2153 7.23855 10.9505 6.29468 10.982C5.35066 11.0134 4.44017 11.3396 3.6907 11.9149L0.958155 14.6484C0.0424702 15.8274 -0.237895 17.3802 0.208096 18.8052C0.653929 20.23 1.76943 21.3458 3.19374 21.7918C4.61804 22.2379 6.17031 21.9575 7.34907 21.0415L10.0927 18.297C10.663 17.5471 10.9857 16.6382 11.0159 15.6964C11.046 14.7547 10.7821 13.8269 10.2609 13.0421L13.0703 10.2317C13.8548 10.7532 14.7823 11.0171 15.7237 10.9871C16.6651 10.957 17.5738 10.6341 18.3234 10.0634L21.0669 7.31892C21.7594 6.41071 22.0855 5.27538 21.9808 4.13789C21.8759 3.0004 21.3479 1.94381 20.5011 1.17742C19.6542 0.411038 18.5507 -0.00905798 17.4087 0.000148168L17.4086 0.0109936ZM8.68406 17.1074L6.14536 19.6433C5.69541 19.9633 5.15739 20.1359 4.6053 20.1373C3.87763 20.1373 3.17977 19.8481 2.6652 19.3335C2.15078 18.8187 1.86174 18.1207 1.86174 17.3927C1.86512 16.8408 2.0372 16.303 2.3555 15.8522L4.8942 13.3126C5.28446 13.0335 5.74299 12.8658 6.221 12.8271C6.69913 12.7885 7.17865 12.8803 7.60853 13.0931L6.70127 14.0007L6.70144 14.0005C6.53118 14.1731 6.43567 14.4058 6.43567 14.6482C6.43567 14.8907 6.53121 15.1235 6.70144 15.296C6.87337 15.4672 7.10624 15.5632 7.34893 15.5632C7.5916 15.5632 7.82429 15.4672 7.99639 15.296L8.90366 14.3884L8.90352 14.3886C9.08265 14.7543 9.17648 15.1558 9.17786 15.5632C9.17447 16.1161 9.00179 16.6549 8.68409 17.1075L8.68406 17.1074ZM19.6583 6.12932L17.1196 8.66892C16.7294 8.94781 16.2708 9.11569 15.7928 9.15442C15.3147 9.193 14.8352 9.10116 14.4053 8.88838L15.3126 7.9808L15.3124 7.98097C15.5437 7.74956 15.6341 7.41231 15.5494 7.09622C15.4647 6.78011 15.2179 6.53323 14.9019 6.44839C14.5859 6.36366 14.2488 6.45403 14.0175 6.68547L13.1102 7.59305H13.1104C12.8977 7.16299 12.8059 6.68333 12.8445 6.20503C12.8832 5.7269 13.0508 5.26815 13.3298 4.87776L15.8685 2.33819C16.3187 2.01841 16.8565 1.84473 17.4085 1.84061C18.1362 1.84061 18.8341 2.12975 19.3486 2.64434C19.8631 3.1591 20.1521 3.8572 20.1521 4.58513C20.1487 5.13709 19.9767 5.67482 19.6583 6.12571V6.12932Z" fill="white"/>
</svg>
