<svg width="50" height="50" viewBox="0 0 50 50" fill="none" xmlns="http://www.w3.org/2000/svg">
<path d="M23.9126 35.8058C18.0192 35.8058 13.2246 31.0112 13.2246 25.1177C13.2246 19.2243 18.0192 14.4297 23.9126 14.4297C29.8055 14.4297 34.6001 19.2243 34.6001 25.1177C34.6001 31.0112 29.8055 35.8058 23.9126 35.8058ZM23.9126 16.1016C18.941 16.1016 14.8965 20.1466 14.8965 25.1183C14.8965 30.0899 18.941 34.1344 23.9126 34.1344C28.8843 34.1344 32.9287 30.0894 32.9287 25.1183C32.9287 20.1461 28.8843 16.1016 23.9126 16.1016Z" fill="white"/>
<path d="M24.7476 0.835938H23.0762V9.4391H24.7476V0.835938Z" fill="white"/>
<path d="M23.9119 10.2745C23.4504 10.2745 23.0762 9.90028 23.0762 9.43886V0.835692C23.0762 0.374264 23.4499 0 23.9119 0C24.3733 0 24.7476 0.374264 24.7476 0.835692V9.43886C24.7476 9.90028 24.3733 10.2745 23.9119 10.2745Z" fill="white"/>
<path d="M23.9119 49.0324C23.4504 49.0324 23.0762 48.6581 23.0762 48.1967V39.5935C23.0762 39.1321 23.4504 38.7578 23.9119 38.7578C24.3733 38.7578 24.7476 39.1321 24.7476 39.5935V48.1967C24.7476 48.6581 24.3733 49.0324 23.9119 49.0324Z" fill="white"/>
<path d="M34.9999 14.8678C34.7858 14.8678 34.5722 14.7861 34.4088 14.6232C34.0825 14.2969 34.0825 13.7679 34.4088 13.4416L40.4918 7.35802C40.8181 7.0317 41.3471 7.0317 41.6734 7.35802C41.9998 7.68435 41.9998 8.21333 41.6734 8.53965L35.591 14.6232C35.4275 14.7861 35.214 14.8678 34.9999 14.8678Z" fill="white"/>
<path d="M7.59364 42.2696C7.37954 42.2696 7.16599 42.1879 7.00255 42.025C6.67623 41.6987 6.67623 41.1697 7.00255 40.8434L13.0861 34.7604C13.4124 34.434 13.9414 34.434 14.2677 34.7604C14.5941 35.0867 14.5941 35.6157 14.2677 35.942L8.18418 42.025C8.02129 42.1884 7.80719 42.2696 7.59364 42.2696Z" fill="white"/>
<path d="M48.1942 25.9565H39.5916C39.1301 25.9565 38.7559 25.5823 38.7559 25.1208C38.7559 24.6594 39.1301 24.2852 39.5916 24.2852H48.1942C48.6556 24.2852 49.0299 24.6594 49.0299 25.1208C49.0299 25.5823 48.6556 25.9565 48.1942 25.9565Z" fill="white"/>
<path d="M9.43885 25.9565H0.835692C0.374264 25.9565 0 25.5823 0 25.1208C0 24.6594 0.374264 24.2852 0.835692 24.2852H9.43885C9.90028 24.2852 10.2745 24.6594 10.2745 25.1208C10.2751 25.5823 9.90083 25.9565 9.43885 25.9565Z" fill="white"/>
<path d="M41.0829 43.1256C40.8688 43.1256 40.6553 43.0439 40.4918 42.881L34.4088 36.7975C34.0825 36.4711 34.0825 35.9422 34.4088 35.6158C34.7351 35.2895 35.2641 35.2895 35.5904 35.6158L41.6734 41.6994C41.9998 42.0257 41.9998 42.5547 41.6734 42.881C41.5106 43.0445 41.297 43.1256 41.0829 43.1256Z" fill="white"/>
<path d="M13.6767 15.7194C13.4626 15.7194 13.249 15.6377 13.0856 15.4748L7.00255 9.39121C6.67623 9.06489 6.67623 8.53536 7.00255 8.20959C7.32888 7.88326 7.85786 7.88326 8.18418 8.20959L14.2677 14.2931C14.5941 14.6195 14.5941 15.149 14.2677 15.4748C14.1043 15.6377 13.8908 15.7194 13.6767 15.7194Z" fill="white"/>
</svg>
