<svg width="26" height="19" viewBox="0 0 26 19" fill="none" xmlns="http://www.w3.org/2000/svg">
<path d="M10.768 18.5462C5.81642 18.4535 4.12521 18.3701 3.0857 18.1523C2.3824 18.0076 1.77123 17.6863 1.3231 17.2203C0.976755 16.8676 0.701319 16.3295 0.487628 15.5829C0.304325 14.9609 0.232934 14.4434 0.131153 13.1793C-0.0246544 10.3263 -0.0617972 7.9938 0.131153 5.38757C0.290336 3.94833 0.367516 2.23979 1.42488 1.24302C1.92414 0.776521 2.50492 0.476312 3.15709 0.352206C4.17586 0.155501 8.51627 0 13.0096 0C17.4928 0 21.8428 0.155501 22.8626 0.352206C23.6773 0.507706 24.4414 0.973716 24.89 1.57462C25.8547 3.11785 25.8716 5.03684 25.9695 6.53788C26.0101 7.25308 26.0101 11.3142 25.9695 12.0294C25.8171 14.4017 25.6946 15.241 25.3482 16.1112C25.1341 16.6606 24.9513 16.9505 24.6348 17.2718C24.1385 17.7663 23.5058 18.0951 22.8211 18.2146C18.5362 18.5423 14.8976 18.6134 10.768 18.5462ZM17.3297 9.01411C14.9458 7.71861 12.6632 6.51728 10.33 5.27377V12.7133C12.7853 11.3559 15.3737 10.1124 17.3399 9.00381L17.3297 9.01411Z" fill="#ED0909"/>
</svg>
