<svg width="36" height="18" viewBox="0 0 36 18" fill="none" xmlns="http://www.w3.org/2000/svg">
<path d="M18.2413 16.7532L18.2436 16.7511L33.8916 2.668L33.892 2.66761C33.9854 2.58364 34.0614 2.48209 34.1155 2.36877C34.1697 2.25548 34.201 2.1326 34.2076 2.00714C34.2143 1.88173 34.1962 1.75622 34.1543 1.63778C34.1125 1.5193 34.0477 1.41029 33.9638 1.31692C33.8798 1.22353 33.7783 1.14759 33.6649 1.09344L34.096 0.191135L33.6649 1.09344C33.5516 1.03929 33.4287 1.008 33.3033 1.00134C33.1778 0.99469 33.0523 1.01281 32.9339 1.05466C32.8156 1.09649 32.7066 1.16122 32.6132 1.24516C32.6132 1.2452 32.6131 1.24524 32.6131 1.24528L18.2736 14.1545L17.6045 14.7568L16.9354 14.1545L2.59597 1.24528L18.2413 16.7532ZM18.2413 16.7532C18.0834 16.8962 17.8823 16.9824 17.6699 16.998C17.5428 17.0062 17.4154 16.9888 17.295 16.947C17.1739 16.9049 17.0625 16.8389 16.9674 16.7529L16.9654 16.7511L1.3175 2.668L1.31707 2.66761M18.2413 16.7532L1.31707 2.66761M1.31707 2.66761C1.22366 2.58364 1.14771 2.48209 1.09355 2.36878C1.03938 2.25543 1.00807 2.13254 1.0014 2.00714C0.994736 1.88167 1.01284 1.75617 1.05466 1.63778C1.09651 1.51936 1.16127 1.41033 1.24525 1.31692C1.3292 1.22356 1.43077 1.1476 1.54415 1.09344C1.65747 1.03929 1.78037 1.008 1.9058 1.00134C2.03123 0.99469 2.15673 1.01281 2.27516 1.05466C2.39341 1.09646 2.50228 1.16111 2.5956 1.24495L1.31707 2.66761Z" fill="white" stroke="white" stroke-width="2"/>
</svg>
