<svg width="26" height="26" viewBox="0 0 26 26" fill="none" xmlns="http://www.w3.org/2000/svg">
<path d="M26 13C26 5.8203 20.1797 0 13 0C5.82029 0 0 5.8203 0 13C0 19.4887 4.75391 24.8669 10.9688 25.8421V16.7578H7.66798V13H10.9688V10.136C10.9688 6.87782 12.9096 5.07814 15.879 5.07814C17.3014 5.07814 18.7891 5.33204 18.7891 5.33204V8.53126H17.1498C15.5349 8.53126 15.0313 9.53336 15.0313 10.5614V13H18.6367L18.0604 16.7578H15.0312V25.8421C21.2461 24.8669 26 19.4887 26 13Z" fill="#1877F2"/>
<path d="M18.0936 16.7578L18.6711 13H15.0588V10.5614C15.0588 9.53335 15.5634 8.53125 17.1813 8.53125H18.8237V5.33203C18.8237 5.33203 17.3332 5.07812 15.9082 5.07812C12.9331 5.07812 10.9886 6.8778 10.9886 10.1359V13H7.68164V16.7578H10.9886V25.8421C11.6619 25.9474 12.3423 26.0002 13.0237 26C13.7161 26 14.3957 25.9459 15.0588 25.8421V16.7578H18.0936Z" fill="white"/>
</svg>
