<svg width="17" height="16" viewBox="0 0 17 16" fill="none" xmlns="http://www.w3.org/2000/svg">
<path d="M14.8641 1.0784C14.0981 0.387903 13.1155 0.00768256 12.0971 0.00768256C10.9192 0.00768256 9.77972 0.519142 8.97099 1.41126C8.78229 1.61845 8.60983 1.84679 8.44982 2.09991C7.62329 0.790938 6.28817 0 4.84951 0C4.58588 0 4.31855 0.0264872 4.05477 0.0786796C2.69321 0.349424 1.62303 1.16713 0.874214 2.50844C-0.198017 4.43116 -0.282854 6.20677 0.613806 7.93668C1.09484 8.86334 1.7207 9.76978 2.5282 10.7075C4.01382 12.4319 5.77209 14.0678 8.06328 15.8575C8.18529 15.9522 8.3152 16 8.4487 16C8.65581 16 8.79588 15.8856 8.8757 15.8197C10.912 14.2335 12.5831 12.7052 13.9849 11.1457C14.7734 10.2683 15.6665 9.19045 16.3195 7.85004C16.5934 7.28561 16.9063 6.52791 16.8881 5.67197C16.847 3.79856 16.1664 2.25289 14.8644 1.07812L14.8641 1.0784ZM15.4832 7.36642C14.8875 8.59005 14.0499 9.59851 13.3096 10.4227C11.9748 11.9075 10.3833 13.3675 8.44545 14.886C6.28844 13.189 4.62303 11.6329 3.21692 10.0002C2.46162 9.12286 1.87987 8.28155 1.43684 7.42745C0.714757 6.03393 0.792344 4.64148 1.68219 3.04637C2.28452 1.96717 3.14018 1.31088 4.22351 1.0952C4.43098 1.05384 4.64167 1.03335 4.84938 1.03335C6.14029 1.03335 7.28341 1.81063 7.90364 3.10691C7.93902 3.18233 7.97391 3.25436 8.03128 3.371C8.11338 3.53997 8.274 3.64474 8.44824 3.64474H8.45637C8.63348 3.64148 8.79434 3.53031 8.8726 3.35652C9.09871 2.85575 9.34323 2.46888 9.64296 2.13799C10.2758 1.44018 11.17 1.04079 12.0971 1.04079C12.8965 1.04079 13.665 1.33698 14.261 1.87508C15.3428 2.84977 15.9079 4.13613 15.9422 5.69666C15.955 6.30977 15.7171 6.88452 15.4832 7.36639L15.4832 7.36642Z" fill="white"/>
</svg>
