<svg width="26" height="23" viewBox="0 0 26 23" fill="none" xmlns="http://www.w3.org/2000/svg">
<rect x="1" y="3.01953" width="21" height="16" rx="2" fill="white"/>
<path d="M25.5456 20.9171C25.6033 20.9176 25.6604 20.9066 25.7135 20.8847C25.7666 20.8628 25.8145 20.8305 25.8543 20.7898C25.8941 20.7491 25.9249 20.7008 25.9448 20.648C25.9646 20.5951 25.9732 20.5389 25.9698 20.4827C25.9698 20.1746 25.7795 20.0275 25.3889 20.0275H24.7579V21.6403H24.9952V20.9373H25.2869L25.2936 20.9458L25.7462 21.6403H26L25.513 20.9215L25.5456 20.9171ZM25.2711 20.7555H24.9959V20.2102H25.3448C25.525 20.2102 25.7304 20.239 25.7304 20.4693C25.7304 20.7343 25.5225 20.7555 25.2697 20.7555H25.2711ZM19.3542 18.8958H15.9886V13.7499C15.9886 12.5228 15.9662 10.9431 14.2381 10.9431C12.4852 10.9431 12.217 12.2801 12.217 13.6605V18.8955H8.85131V8.31331H12.0823V9.75948H12.1276C12.4509 9.2197 12.9182 8.77566 13.4795 8.47464C14.0409 8.17362 14.6754 8.02689 15.3155 8.05009C18.7267 8.05009 19.3556 10.2407 19.3556 13.0906L19.3542 18.8958ZM5.05373 6.8668C4.66744 6.86686 4.2898 6.75509 3.96858 6.54562C3.64735 6.33614 3.39695 6.03837 3.24906 5.68996C3.10117 5.34154 3.06242 4.95814 3.13772 4.58822C3.21301 4.21831 3.39896 3.8785 3.67207 3.61177C3.94517 3.34504 4.29315 3.16337 4.672 3.08972C5.05086 3.01608 5.44358 3.05377 5.80049 3.19804C6.1574 3.3423 6.46249 3.58666 6.67716 3.90021C6.89183 4.21376 7.00644 4.58242 7.00651 4.95956C7.00656 5.20998 6.95609 5.45795 6.85797 5.68932C6.75986 5.9207 6.61603 6.13094 6.4347 6.30804C6.25337 6.48514 6.03808 6.62564 5.80114 6.72151C5.56419 6.81738 5.31022 6.86675 5.05373 6.8668ZM6.73656 18.8958H3.3674V8.31331H6.73656V18.8958ZM21.0322 0.00151037H1.67616C1.23684 -0.00333006 0.813515 0.162316 0.499217 0.462048C0.18492 0.761781 0.00536174 1.17108 0 1.6V20.5761C0.00517823 21.0053 0.184621 21.4149 0.498908 21.7149C0.813195 22.0149 1.23662 22.1809 1.67616 22.1763H21.0322C21.4726 22.1817 21.8972 22.0162 22.2127 21.7162C22.5282 21.4162 22.7089 21.0061 22.715 20.5761V1.59863C22.7087 1.16886 22.5279 0.759096 22.2124 0.459371C21.8969 0.159646 21.4724 -0.00552696 21.0322 0.00014121" fill="#0A66C2"/>
</svg>
