<svg width="19" height="25" viewBox="0 0 19 25" fill="none" xmlns="http://www.w3.org/2000/svg">
<path d="M18.0469 12.1601C18.0469 11.7149 17.6069 11.3506 17.0692 11.3506C16.5314 11.3506 16.0915 11.7149 16.0915 12.1601C16.0915 15.3538 12.9285 17.9522 9.04688 17.9522C5.16049 17.9522 2.0023 15.3535 2.0023 12.1601C2.0023 11.7149 1.56235 11.3506 1.0246 11.3506C0.486863 11.3506 0.046875 11.7149 0.046875 12.1601C0.046875 15.973 3.56665 19.122 8.06916 19.5226V22.8497H5.92803C5.39028 22.8497 4.9503 23.2139 4.9503 23.6592C4.9503 24.1044 5.39028 24.4687 5.92803 24.4687H12.1608C12.6986 24.4687 13.1385 24.1044 13.1385 23.6592C13.1385 23.2139 12.6986 22.8497 12.1608 22.8497H10.0245V19.5225C14.5268 19.1219 18.0468 15.9727 18.0468 12.1599L18.0469 12.1601Z" fill="#C4C4C4"/>
<path d="M9.03201 16.1596H9.05641C11.7255 16.1596 13.9009 14.3584 13.9009 12.1484V4.19473C13.9009 1.98481 11.7255 0.183594 9.032 0.183594C6.36295 0.183594 4.1875 1.98481 4.1875 4.19473V12.1484C4.18727 14.3625 6.36272 16.1598 9.032 16.1598L9.03201 16.1596ZM6.14271 4.19477C6.14271 2.87534 7.43823 1.80269 9.0562 1.80269C10.6498 1.80269 11.9453 2.87534 11.9453 4.19477V12.1485C11.9453 13.4679 10.6498 14.5406 9.0562 14.5406H9.03179C7.43822 14.5406 6.14272 13.4679 6.14272 12.1485L6.14271 4.19477Z" fill="#C4C4C4"/>
</svg>
