<svg width="23" height="23" viewBox="0 0 23 23" fill="none" xmlns="http://www.w3.org/2000/svg">
<path fill-rule="evenodd" clip-rule="evenodd" d="M15.9241 17.5497L20.938 22.5628C21.224 22.8488 21.6889 22.8488 21.975 22.5628C22.261 22.2768 22.261 21.8119 21.975 21.5259L16.9618 16.512C18.3918 14.8451 19.2564 12.6781 19.2564 10.3108C19.2564 5.04908 14.9847 0.777344 9.72295 0.777344C4.46119 0.777344 0.189453 5.04908 0.189453 10.3108C0.189453 15.5726 4.46119 19.8443 9.72295 19.8443C12.0902 19.8443 14.2572 18.9797 15.9241 17.5497ZM9.72295 2.24403C14.1751 2.24403 17.7897 5.8587 17.7897 10.3108C17.7897 14.763 14.1751 18.3776 9.72295 18.3776C5.2708 18.3776 1.65614 14.763 1.65614 10.3108C1.65614 5.8587 5.2708 2.24403 9.72295 2.24403Z" fill="#DEDBDB"/>
</svg>
