<svg width="26" height="22" viewBox="0 0 26 22" fill="none" xmlns="http://www.w3.org/2000/svg">
<path d="M8.17674 21.4118C17.9885 21.4118 23.3542 13.1749 23.3542 6.03212C23.3542 5.7982 23.3495 5.56535 23.3391 5.33346C24.3832 4.56794 25.2842 3.62011 26 2.5344C25.0442 2.96499 24.0157 3.2548 22.9367 3.38547C24.038 2.7163 24.8835 1.65765 25.2824 0.395743C24.2353 1.02519 23.0897 1.46892 21.8951 1.7078C20.9217 0.657127 19.5359 0 18.0014 0C15.0555 0 12.6667 2.42071 12.6667 5.4046C12.6667 5.82882 12.7136 6.24132 12.8051 6.63711C8.37163 6.41106 4.44035 4.26014 1.80933 0.989545C1.33545 1.81445 1.0862 2.75198 1.08703 3.70638C1.08703 5.58173 2.02874 7.23723 3.46085 8.20579C2.61374 8.17958 1.78522 7.94772 1.04497 7.52971C1.04417 7.55241 1.04417 7.57452 1.04417 7.59877C1.04417 10.2165 2.88288 12.4022 5.32371 12.8974C4.86529 13.0239 4.39225 13.0879 3.91712 13.0876C3.574 13.0876 3.23959 13.0534 2.91459 12.9902C3.59371 15.1379 5.56294 16.7008 7.89771 16.7445C6.07195 18.1945 3.77206 19.0582 1.27241 19.0582C0.847193 19.0586 0.422319 19.0336 0 18.9833C2.36082 20.5167 5.16406 21.4114 8.177 21.4114" fill="#1DA1F2"/>
</svg>
